<?xml version="1.0" encoding="UTF-8" standalone="no"?>
<!-- Created with Inkscape (http://www.inkscape.org/) -->

<svg
   xmlns:dc="http://purl.org/dc/elements/1.1/"
   xmlns:cc="http://creativecommons.org/ns#"
   xmlns:rdf="http://www.w3.org/1999/02/22-rdf-syntax-ns#"
   xmlns:svg="http://www.w3.org/2000/svg"
   xmlns="http://www.w3.org/2000/svg"
   version="1.1"
   width="1364.725"
   height="1829.6375"
   id="svg3051"
   xml:space="preserve"><metadata
     id="metadata3057"><rdf:RDF><cc:Work
         rdf:about=""><dc:format>image/svg+xml</dc:format><dc:type
           rdf:resource="http://purl.org/dc/dcmitype/StillImage" /><dc:title></dc:title></cc:Work></rdf:RDF></metadata><defs
     id="defs3055"><clipPath
       id="clipPath3065"><path
         d="m 0,1463.707 1091.782,0 L 1091.782,0 0,0 0,1463.707 z"
         id="path3067" /></clipPath><clipPath
       id="clipPath3073"><path
         d="m 158.188,1378.65 860.472,0 0,-1244.962 -860.472,0 0,1244.962 z"
         id="path3075" /></clipPath></defs><g
     transform="matrix(1.25,0,0,-1.25,0,1829.6375)"
     id="g3059"><g
       id="g3061"><g
         clip-path="url(#clipPath3065)"
         id="g3063"><g
           id="g3069"><g
             id="g3071" /><g
             id="g3077"><g
               clip-path="url(#clipPath3073)"
               id="g3079"><g
                 transform="translate(477.2749,478.6064)"
                 id="g3081"><path
                   d="m 0,0 c 4.073,-4.063 12.884,-13.415 19.238,-18.393 8.618,-6.751 9.95,-9.666 18,-17 16.963,-15.453 27.349,-25.389 42,-47 7.451,-10.99 18.026,-26.622 22,-39 9.388,-29.236 6.992,-53.359 -14.959,-78.627 -15.48,-17.818 -26.418,-26.544 -46.041,-38.373 -23.321,-14.057 -48.416,-30.998 -72.858,-43.01 -18.16,-8.926 -34.503,-16.459 -53.333,-24 -12.454,-4.988 -25.759,-8.55 -38,-14 -11.999,-5.342 -23.007,-3.327 -34.667,1.333 -16.799,6.716 -26.876,15.869 -36.646,30.031 -8.443,12.242 -16.042,24.635 -20.478,38.896 -3.658,11.762 -7.628,23.428 -11.548,35.106 -3.918,11.676 0.286,22.423 11.935,25.775 18.756,5.399 37.755,9.954 56.623,14.975 13.696,3.645 27.382,7.336 41.006,11.241 18.516,5.308 37.091,10.457 55.398,16.419 11.043,3.596 14.079,4.228 24.723,9.894 4.154,2.212 4.036,8.656 3.631,12.203 -0.853,7.482 -7.695,14.268 -16.03,20.969 -16.012,16.933 -21.349,20.957 -37.281,35.491 -17.912,16.342 -38.2,35.445 -56.479,51.323 -16.465,14.303 -24.406,30.145 -33.321,48.637 -4.082,8.465 -8.661,19.619 -8.919,28.875 -0.545,19.465 -0.287,15.705 0.172,23.292 0.917,15.173 3.786,30.242 6.1,45.316 3.643,23.743 7.679,47.428 11.183,71.191 1.953,13.249 3.477,26.733 5.882,39.885 3.408,18.641 7.335,37.002 10.894,55.619 2.659,13.913 4.113,28.054 6.23,42.074 2.116,14.015 4.684,27.97 6.483,42.025 1.093,8.536 0.075,15.872 -9.01,21.361 -11.859,7.164 -21.973,17.175 -33.672,24.656 -10.526,6.731 -25.461,15.374 -36.053,22.018 -14.461,9.07 -23.196,15.679 -37.963,26.154 -14.924,10.586 -29.229,22.395 -43.57,33.772 -14.783,11.727 -21.047,26.323 -19.538,45.269 1.15,14.422 0.234,29.009 0.235,43.522 10e-4,49.554 0.466,99.115 -0.346,148.655 -0.19,11.574 3.437,19.81 10.613,28.043 20.711,23.76 40.137,48.697 61.709,71.628 16.344,17.374 35.905,30.984 54.013,47.223 16.882,15.139 37.434,2.974 54.234,-24.452 5.534,-9.035 10.119,-15.559 2.046,-24.104 -13.271,-14.047 -25.533,-29.047 -38.824,-43.074 -9.079,-9.581 -19.63,-17.767 -28.693,-27.361 -7.904,-8.368 -11.587,-12.798 -18.699,-21.89 -3.297,-4.216 -7.377,-9.353 -10.548,-13.674 -10.879,-14.819 -9.556,-35.169 -7.795,-52.236 2.192,-21.236 3.911,-43.01 5.63,-64.784 1.213,-15.37 4.497,-31.173 4.827,-46.599 0.172,-8.058 4.289,-13.711 10.758,-17.223 12.542,-6.81 27.366,-11.98 41.701,-15.227 16.934,-3.835 26.217,-7.219 43.316,-13.298 20.359,-7.239 38.583,-17.528 57.521,-28.01 9.37,-5.186 19.778,-5.176 28.368,0.836 7.074,4.951 7.518,13.718 7.302,22.284 -0.466,18.505 -12.294,31.7 -20.458,46.71 -12.215,22.46 -18.625,44.884 -16.851,72.297 0.975,15.058 1.402,25.857 3.853,38.445 4.637,23.81 16.903,49.049 33.653,66.858 6.821,7.251 9.438,10.055 16.326,17.233 13.081,13.63 31.894,20.45 50.229,21.569 44.247,2.698 73.9,-21.768 95.895,-55.997 7.956,-12.378 10.573,-29.163 12.366,-44.322 3.933,-33.257 5.802,-67.001 -6.405,-99.088 -5.542,-14.566 -15.331,-27.457 -22.21,-41.587 C 92.03,527.65 77.065,513.861 55.905,505.945 c -7.577,-2.834 -13.612,-7.123 -17.103,-15.606 -4.741,-11.517 0.265,-22.798 12.711,-22.422 12.795,0.388 23.529,0.916 36.156,1.33 23.179,0.76 34.377,-0.393 48.828,-10.069 34.523,-23.117 64.367,-49.824 98.502,-72.985 22.983,-15.595 47.044,-29.606 70.713,-44.179 4.53,-2.79 9.392,-6.626 14.259,-6.875 5.908,-0.303 12.706,1.46 17.853,4.483 15.188,8.92 30.061,18.461 44.474,28.588 15.015,10.552 18.171,14.158 31.775,26.396 16.994,15.287 25.231,28.408 38.739,44.71 10.623,12.821 11.172,14.859 24.221,27.016 11.329,10.555 14.018,13.567 28.08,14.088 12.54,0.464 14.583,-5.729 28.125,-16.146 5.208,-6.25 10.795,-9.15 6.771,-25 -3.607,-14.208 -9.194,-21.305 -17.329,-33.494 -10.664,-15.979 -14.376,-22.049 -27.016,-36.332 -13.886,-15.692 -28.701,-34.912 -44.567,-48.755 -18.767,-16.373 -38.341,-31.818 -57.118,-48.181 -14.829,-12.923 -28.355,-27.393 -43.599,-39.774 -16.424,-13.34 -28.775,-16.984 -50.373,-3.877 -26.24,15.924 -51.402,37.101 -77.802,52.754 -5.68,3.367 -61.799,33.492 -86.876,46.119 -5.964,3.003 -12.87,6.078 -22.078,9.21 -10.308,4.284 -25.307,-7.277 -29.596,-19.468 C 74.467,299.179 68.703,286.441 58.697,270.69 53.699,262.823 32.833,221.781 25.121,211.17 13.169,194.723 5.653,175.935 11.895,156.228 c 1.715,-5.417 3.7,-9.266 8.829,-11.484 16.38,-7.085 33.427,-12.66 50.327,-18.499 21.083,-7.285 122.166,-37.038 136.293,-41.628 24.275,-7.888 48.628,-15.596 72.582,-24.381 6.139,-2.252 16.636,-10.623 21.292,-15.593 8.81,-9.407 13.77,-15.515 19.653,-26.654 11.799,-22.339 20.719,-45.231 20.478,-71.716 1.864,-31.281 5.145,-61.93 9.526,-92.96 2.738,-19.388 4.362,-37.697 5.839,-57.383 4.28,-29.499 2.573,-57.576 3,-89 -0.486,-11.652 -3.081,-19.709 -12.991,-22.993 -18.655,-6.181 -37.892,-10.748 -57.084,-15.121 -20.826,-4.746 -41.805,-8.911 -62.86,-12.494 -8.267,-1.406 -17.093,-1.698 -25.357,-0.454 -12.949,1.95 -17.514,11.95 -17.225,24.911 7.479,38.57 17.759,65.051 25.237,100.256 5.194,24.459 9.272,50.122 10.947,74.971 1.302,19.305 1.57,38.7 1.603,58.056 0.012,7.396 -2.096,14.775 -2.904,22.198 -1.099,10.094 -8.796,13.841 -16.645,16.34 -17.437,5.553 -35.122,10.339 -52.772,15.207 -37.28,10.28 -74.499,20.814 -111.968,30.367 C 25.954,1.168 10.046,2.893 1.366,2.827 0.319,2.819 -0.741,0.739 0,0"
                   id="path3083"
                   style="fill:#000000;fill-opacity:1;fill-rule:nonzero;stroke:none" /></g></g></g></g></g></g></g></svg>